<?xml version="1.0" encoding="UTF-8"?>
<svg version="1.1" xmlns="http://www.w3.org/2000/svg" width="495" height="504">
<path d="M0 0 C0.81417892 0.0028299 1.62835785 0.00565979 2.46720886 0.00857544 C5.05511475 0.01972666 7.64266833 0.04482167 10.23046875 0.0703125 C11.99022936 0.08034885 13.74999542 0.08947356 15.50976562 0.09765625 C19.81263473 0.1196494 24.11524211 0.15414414 28.41796875 0.1953125 C28.48661122 55.34816339 28.53948552 110.50100997 28.57116474 165.65389517 C28.57491693 172.1628182 28.57879989 178.67174115 28.58276367 185.18066406 C28.5835506 186.47649239 28.58433753 187.77232072 28.58514831 189.10741657 C28.59820796 210.09883652 28.62186489 231.09023186 28.64942714 252.0816372 C28.67746577 273.6151906 28.69414175 295.1487311 28.70023423 316.682302 C28.70435387 329.97336568 28.717373 343.26435982 28.74171815 356.5554021 C28.75755629 365.66527278 28.76237346 374.77510742 28.75847288 383.88499087 C28.75654835 389.14362162 28.75953202 394.40213069 28.77558517 399.6607399 C28.79017406 404.47479007 28.79092761 409.28863662 28.78066543 414.10269612 C28.77939691 415.84441918 28.78321098 417.5861549 28.7926183 419.32785302 C28.80466809 421.69648063 28.79816239 424.06437446 28.78711224 426.43299103 C28.7882514 427.74834225 28.78939056 429.06369348 28.79056424 430.41890383 C28.0927867 437.49116641 25.3402508 444.00564722 20.41796875 449.1953125 C13.20488547 454.99511144 6.70467353 457.52546309 -2.60546875 457.390625 C-3.35164459 457.3877951 -4.09782043 457.38496521 -4.86660767 457.38204956 C-7.23025113 457.37092937 -9.59350393 457.34584071 -11.95703125 457.3203125 C-13.56770283 457.31027212 -15.1783804 457.30114812 -16.7890625 457.29296875 C-20.72020069 457.2710169 -24.65104992 457.23654435 -28.58203125 457.1953125 C-28.62779797 402.31426603 -28.66304501 347.43322149 -28.68416191 292.5521597 C-28.68666336 286.07456802 -28.689252 279.59697639 -28.69189453 273.11938477 C-28.69241915 271.82979998 -28.69294377 270.54021519 -28.69348429 269.21155208 C-28.70218951 248.32427935 -28.71796014 227.43701761 -28.73633684 206.54975141 C-28.75503261 185.12128349 -28.76614729 163.69282133 -28.77020824 142.26434559 C-28.77295396 129.03932692 -28.78162963 115.81433934 -28.79786418 102.58933025 C-28.80842707 93.52337507 -28.81163345 84.45743598 -28.809034 75.39147509 C-28.80775164 70.15907531 -28.8097328 64.92672989 -28.8204422 59.69433975 C-28.83017711 54.90309499 -28.83066454 50.11194113 -28.82382904 45.32069217 C-28.82298425 43.58837479 -28.82551924 41.85605172 -28.83179761 40.12374551 C-28.91092184 16.94210404 -28.91092184 16.94210404 -21.58203125 8.1953125 C-14.84604644 2.04565836 -9.14435545 -0.1204728 0 0 Z " fill="#F95D00" transform="translate(439.58203125,20.8046875)"/>
<path d="M0 0 C0.81417892 0.0028299 1.62835785 0.00565979 2.46720886 0.00857544 C5.05511475 0.01972666 7.64266833 0.04482167 10.23046875 0.0703125 C11.99022936 0.08034885 13.74999542 0.08947356 15.50976562 0.09765625 C19.81263473 0.1196494 24.11524211 0.15414414 28.41796875 0.1953125 C28.46373547 55.07635897 28.49898251 109.95740351 28.52009941 164.8384653 C28.52260086 171.31605698 28.5251895 177.79364861 28.52783203 184.27124023 C28.52835665 185.56082502 28.52888127 186.85040981 28.52942179 188.17907292 C28.53812701 209.06634565 28.55389764 229.95360739 28.57227434 250.84087359 C28.59097011 272.26934151 28.60208479 293.69780367 28.60614574 315.12627941 C28.60889146 328.35129808 28.61756713 341.57628566 28.63380168 354.80129475 C28.64436457 363.86724993 28.64757095 372.93318902 28.6449715 381.99914991 C28.64368914 387.23154969 28.6456703 392.46389511 28.6563797 397.69628525 C28.66611461 402.48753001 28.66660204 407.27868387 28.65976654 412.06993283 C28.65892175 413.80225021 28.66145674 415.53457328 28.66773511 417.26687949 C28.74804024 440.7944973 28.74804024 440.7944973 20.41796875 449.1953125 C13.21509377 455.00657657 6.70485946 457.52546578 -2.60546875 457.390625 C-3.35164459 457.3877951 -4.09782043 457.38496521 -4.86660767 457.38204956 C-7.23025113 457.37092937 -9.59350393 457.34584071 -11.95703125 457.3203125 C-13.56770283 457.31027212 -15.1783804 457.30114812 -16.7890625 457.29296875 C-20.72020069 457.2710169 -24.65104992 457.23654435 -28.58203125 457.1953125 C-28.65068832 402.07650517 -28.70355544 346.95770216 -28.73522724 291.83886049 C-28.73897939 285.332515 -28.74286235 278.82616959 -28.74682617 272.31982422 C-28.7476131 271.02452051 -28.74840003 269.72921681 -28.74921081 268.39466147 C-28.76226699 247.41752569 -28.78592201 226.44041455 -28.81348964 205.46329339 C-28.84153792 183.94103046 -28.85820629 162.41878045 -28.86429673 140.89649999 C-28.86841436 127.6146549 -28.88142265 114.33287948 -28.90578065 101.05105583 C-28.92163069 91.94490843 -28.92643325 82.83879708 -28.92253538 73.73263688 C-28.92061271 68.4778088 -28.92357341 63.22310252 -28.93964767 57.96829605 C-28.95426267 53.15537489 -28.95497314 48.34265727 -28.94472793 43.52972667 C-28.94346196 41.79065979 -28.94725389 40.05158013 -28.9566808 38.31253834 C-29.06344169 17.39772422 -29.06344169 17.39772422 -23.33203125 9.8828125 C-16.16528354 2.87894542 -10.17922439 -0.13410673 0 0 Z " fill="#F85D02" transform="translate(46.58203125,20.8046875)"/>
<path d="M0 0 C0.81417892 0.0028299 1.62835785 0.00565979 2.46720886 0.00857544 C5.05511475 0.01972666 7.64266833 0.04482167 10.23046875 0.0703125 C11.99022936 0.08034885 13.74999542 0.08947356 15.50976562 0.09765625 C19.81263473 0.1196494 24.11524211 0.15414414 28.41796875 0.1953125 C28.48663202 40.82523416 28.53949609 81.45514827 28.57116474 122.08511636 C28.57491687 126.88161412 28.57879983 131.67811178 28.58276367 136.47460938 C28.5835506 137.42950762 28.58433753 138.38440586 28.58514831 139.36824042 C28.59820302 154.83078494 28.62185723 170.29329601 28.64942714 185.75582069 C28.67747952 201.62123134 28.69414466 217.48662446 28.70023423 233.35205889 C28.70435102 243.14225443 28.71735466 252.93235541 28.74171815 262.72252184 C28.75757326 269.43556996 28.76236961 276.14856918 28.75847288 282.86163467 C28.75655099 286.73500028 28.75950185 290.60820062 28.77558517 294.48153687 C28.79290238 298.68274559 28.7869305 302.88360256 28.7787323 307.08483887 C28.78747082 308.30663959 28.79620935 309.52844031 28.80521268 310.7872653 C28.7556108 320.17605766 27.06227705 328.17273912 20.41796875 335.1953125 C14.23626178 340.24990373 8.49823612 343.1953125 0.41796875 343.1953125 C0.41796875 380.8153125 0.41796875 418.4353125 0.41796875 457.1953125 C-9.15203125 457.1953125 -18.72203125 457.1953125 -28.58203125 457.1953125 C-28.6276457 402.44165994 -28.66304506 347.6880098 -28.68416191 292.93434197 C-28.68666336 286.47177157 -28.689252 280.0092012 -28.69189453 273.54663086 C-28.69241915 272.26003669 -28.69294377 270.97344251 -28.69348429 269.64786064 C-28.70218949 248.80908684 -28.7179601 227.97032407 -28.73633684 207.13155682 C-28.75503268 185.75280944 -28.76614731 164.37406785 -28.77020824 142.99531263 C-28.77295395 129.8010034 -28.78162954 116.60672533 -28.79786418 103.41242569 C-28.80842715 94.36749528 -28.81163343 85.32258101 -28.809034 76.27764488 C-28.80775165 71.05739665 -28.80973265 65.83720291 -28.8204422 60.61696434 C-28.83017729 55.83682205 -28.83066442 51.05677087 -28.82382904 46.27662437 C-28.82298426 44.54834464 -28.8255191 42.82005922 -28.83179761 41.09179068 C-28.9108296 17.99159572 -28.9108296 17.99159572 -21.58203125 8.1953125 C-14.9909282 1.95110961 -9.04702513 -0.11919051 0 0 Z " fill="#F95D00" transform="translate(130.58203125,20.8046875)"/>
<path d="M0 0 C9.57 0 19.14 0 29 0 C29.04560482 54.78769611 29.08100883 109.57538982 29.10213066 164.36310119 C29.10463213 170.82824913 29.10722077 177.29339704 29.10986328 183.75854492 C29.1103879 185.04566372 29.11091252 186.33278251 29.11145304 187.6589049 C29.12016057 208.51196287 29.13593246 229.36500984 29.15430559 250.21806128 C29.17299496 271.60809912 29.18411468 292.99813119 29.18817699 314.38817686 C29.19092405 327.59170471 29.19960691 340.79520146 29.21583293 353.99871974 C29.22638792 363.04737343 29.229604 372.09601098 29.22700275 381.14467037 C29.22571915 386.3687213 29.22771554 391.59271781 29.23841095 396.81675911 C29.24812855 401.59803037 29.24864457 406.3792105 29.24179779 411.16048592 C29.2409513 412.89142184 29.24350096 414.62236339 29.24976636 416.35328818 C29.25778419 418.70482986 29.25347112 421.05604189 29.24609566 423.40757847 C29.2468551 424.71419612 29.24761454 426.02081378 29.24839699 427.36702591 C28.63666474 436.31402398 25.49732293 444.26128726 18.97265625 450.42578125 C12.63983342 455.47949927 6.25229959 457.15423405 -1.73046875 457.09765625 C-2.48088943 457.0962413 -3.23131012 457.09482635 -4.00447083 457.09336853 C-6.3988546 457.0877756 -8.79314453 457.07522444 -11.1875 457.0625 C-12.81184761 457.05748408 -14.43619668 457.05292134 -16.06054688 457.04882812 C-20.04040069 457.03780848 -24.02018444 457.02054873 -28 457 C-28.06866302 416.24268421 -28.12152722 375.48537595 -28.15319599 334.72801387 C-28.15694812 329.91649483 -28.16083108 325.1049759 -28.16479492 320.29345703 C-28.16558185 319.33556817 -28.16636878 318.37767931 -28.16717956 317.39076352 C-28.18023432 301.8797201 -28.20388857 286.36871003 -28.23145839 270.8576864 C-28.25951061 254.9425552 -28.27617587 239.02744147 -28.28226548 223.11228657 C-28.2863823 213.29138169 -28.29938613 203.47057108 -28.3237494 193.64969522 C-28.33960431 186.91562234 -28.34440091 180.18159822 -28.34050413 173.44750804 C-28.33858221 169.56199103 -28.34153346 165.67663878 -28.35761642 161.79115105 C-28.37493307 157.57680547 -28.36896189 153.36281057 -28.36076355 149.1484375 C-28.36950207 147.92274583 -28.3782406 146.69705416 -28.38724393 145.43422031 C-28.34383713 137.19273662 -26.9461762 131.28524837 -23 124 C-22.34 124 -21.68 124 -21 124 C-21 123.34 -21 122.68 -21 122 C-20.34 122 -19.68 122 -19 122 C-19 121.34 -19 120.68 -19 120 C-17.34634594 118.97862543 -15.67623498 117.98387706 -14 117 C-13.071875 116.443125 -12.14375 115.88625 -11.1875 115.3125 C-8 114 -8 114 0 114 C0 76.38 0 38.76 0 0 Z " fill="#F95C00" transform="translate(355,21)"/>
<path d="M0 0 C0.8494368 -0.00014603 1.6988736 -0.00029205 2.5740509 -0.0004425 C5.36596277 0.00025102 8.1578069 0.00801713 10.94970703 0.01586914 C12.89169274 0.01773531 14.83367893 0.01915827 16.77566528 0.02015686 C21.87525747 0.02396637 26.97482097 0.03378326 32.07440186 0.04486084 C37.28283297 0.05510866 42.49126873 0.0596617 47.69970703 0.06469727 C57.9106571 0.07540696 68.12158593 0.09246453 78.33251953 0.11352539 C78.47199282 12.16220454 78.57838024 24.21068932 78.64339256 36.26001358 C78.67460706 41.85600704 78.71689883 47.45144519 78.78515625 53.04711914 C78.85070171 58.45476431 78.88629976 63.86187785 78.90178299 69.26988983 C78.91280641 71.32546092 78.93433193 73.38100533 78.96689987 75.43634796 C79.14375036 87.06764469 79.19552378 96.22780331 72.33251953 106.11352539 C71.67251953 106.11352539 71.01251953 106.11352539 70.33251953 106.11352539 C70.33251953 106.77352539 70.33251953 107.43352539 70.33251953 108.11352539 C69.67251953 108.11352539 69.01251953 108.11352539 68.33251953 108.11352539 C68.33251953 108.77352539 68.33251953 109.43352539 68.33251953 110.11352539 C66.78489712 110.95401772 65.21796768 111.75894166 63.64501953 112.55102539 C62.77490234 113.00348633 61.90478516 113.45594727 61.00830078 113.92211914 C48.05872973 118.1193765 32.46141688 116.22722887 19.02001953 116.17602539 C16.71858821 116.17100079 14.41715583 116.16643958 12.11572266 116.16235352 C6.52129817 116.15142304 0.9269139 116.13476097 -4.66748047 116.11352539 C-4.66655868 116.98358436 -4.66563688 117.85364332 -4.66468716 118.75006771 C-4.64263402 139.88881097 -4.62606994 161.02755226 -4.6156683 182.16630459 C-4.61050487 192.38870595 -4.60346127 202.61109965 -4.59204102 212.83349609 C-4.58209561 221.73995327 -4.57562739 230.6464049 -4.57339197 239.55286747 C-4.57208462 244.27181342 -4.56899723 248.99074349 -4.56175041 253.70968437 C-4.55499246 258.14598678 -4.55286304 262.58226669 -4.55437279 267.01857376 C-4.55409636 268.65167551 -4.5520899 270.28477797 -4.54827499 271.91787529 C-4.54334125 274.13773749 -4.54448098 276.35751335 -4.54722595 278.57737732 C-4.54630416 279.82271964 -4.54538237 281.06806196 -4.54443264 282.35114193 C-4.66748047 285.11352539 -4.66748047 285.11352539 -5.66748047 286.11352539 C-7.81306874 286.20128144 -9.96152468 286.22047758 -12.10888672 286.21118164 C-13.4140625 286.20795898 -14.71923828 286.20473633 -16.06396484 286.20141602 C-17.45263737 286.1930594 -18.84130924 286.18459444 -20.22998047 286.17602539 C-21.62255703 286.17101205 -23.01513528 286.16644886 -24.40771484 286.16235352 C-27.82767917 286.15051973 -31.24755891 286.13403419 -34.66748047 286.11352539 C-34.71325984 252.98282571 -34.74850066 219.85213424 -34.76961113 186.72141015 C-34.77211254 182.80987885 -34.77470118 178.89834761 -34.77734375 174.98681641 C-34.77813068 173.81874498 -34.77813068 173.81874498 -34.77893351 172.62707616 C-34.78763573 160.01883558 -34.8034047 147.41061324 -34.82178606 134.80238348 C-34.8404902 121.86483884 -34.85159828 108.92730376 -34.85565746 95.98974615 C-34.85840145 88.00681849 -34.86706769 80.02394239 -34.8833134 72.04103059 C-34.89513665 65.91936255 -34.89639051 59.79773381 -34.89369583 53.67605591 C-34.89424659 51.16501612 -34.89823195 48.65397441 -34.90589142 46.14294624 C-34.91583154 42.71651756 -34.91345258 39.29031007 -34.9079895 35.86387634 C-34.91381518 34.86872873 -34.91964087 33.87358111 -34.92564309 32.84827751 C-34.88324994 23.0209765 -32.50741723 13.95346215 -25.35498047 6.80102539 C-16.91459233 1.50124679 -9.91925644 -0.04503163 0 0 Z " fill="#F95D00" transform="translate(220.66748046875,191.886474609375)"/>
<path d="M0 0 C9.57 0 19.14 0 29 0 C29.04560482 54.78769611 29.08100883 109.57538982 29.10213066 164.36310119 C29.10463213 170.82824913 29.10722077 177.29339704 29.10986328 183.75854492 C29.1103879 185.04566372 29.11091252 186.33278251 29.11145304 187.6589049 C29.12016057 208.51196287 29.13593246 229.36500984 29.15430559 250.21806128 C29.17299496 271.60809912 29.18411468 292.99813119 29.18817699 314.38817686 C29.19092405 327.59170471 29.19960691 340.79520146 29.21583293 353.99871974 C29.22638792 363.04737343 29.229604 372.09601098 29.22700275 381.14467037 C29.22571915 386.3687213 29.22771554 391.59271781 29.23841095 396.81675911 C29.24812855 401.59803037 29.24864457 406.3792105 29.24179779 411.16048592 C29.2409513 412.89142184 29.24350096 414.62236339 29.24976636 416.35328818 C29.25778419 418.70482986 29.25347112 421.05604189 29.24609566 423.40757847 C29.2468551 424.71419612 29.24761454 426.02081378 29.24839699 427.36702591 C28.81557374 433.69735891 26.72078444 439.33169909 24 445 C23.34 445.33 22.68 445.66 22 446 C22 444.68 22 443.36 22 442 C22.66 442 23.32 442 24 442 C24 440.02 24 438.04 24 436 C24.66 435.67 25.32 435.34 26 435 C26.33 292.11 26.66 149.22 27 2 C18.75 2 10.5 2 2 2 C2.00785522 7.02806885 2.00785522 7.02806885 2.01586914 12.15771484 C2.03240923 23.20986809 2.04347291 34.26202186 2.05181217 45.31418419 C2.0569728 52.01773076 2.06401108 58.72126563 2.07543945 65.42480469 C2.08627293 71.88921865 2.09227782 78.35362042 2.09487724 84.81804276 C2.09673066 87.28929461 2.10034967 89.76054576 2.10573006 92.23179245 C2.11294657 95.68237521 2.11399068 99.13290705 2.11352539 102.58349609 C2.11712067 103.61423752 2.12071594 104.64497894 2.12442017 105.70695496 C2.1230455 106.64367538 2.12167084 107.58039581 2.12025452 108.54550171 C2.12117631 109.36221029 2.1220981 110.17891888 2.12304783 111.02037621 C2 113 2 113 1 115 C-1.97 115 -4.94 115 -8 115 C-8 114.67 -8 114.34 -8 114 C-5.36 114 -2.72 114 0 114 C0 76.38 0 38.76 0 0 Z " fill="#EC874B" transform="translate(355,21)"/>
<path d="M0 0 C0.33 0.99 0.66 1.98 1 3 C0.01 3.33 -0.98 3.66 -2 4 C-2.98703952 6.06497387 -2.98703952 6.06497387 -3.625 8.5 C-4.92825112 12.92825112 -4.92825112 12.92825112 -6 14 C-6.87574529 18.88592394 -7.12853405 23.60416245 -7.1386652 28.56118679 C-7.14292853 29.65977062 -7.14292853 29.65977062 -7.14727798 30.78054807 C-7.15558677 33.22980377 -7.15689018 35.67901195 -7.15821838 38.12828064 C-7.16278633 39.90386251 -7.1677867 41.67944332 -7.17318195 43.45502287 C-7.1867459 48.33048025 -7.19417637 53.20593065 -7.20060861 58.08140194 C-7.2086202 63.34036837 -7.22231537 68.59932035 -7.23532104 73.85827637 C-7.257073 82.96856674 -7.27522218 92.07885858 -7.29092598 101.1891613 C-7.31363625 114.36113874 -7.34177749 127.53310016 -7.37124526 140.70506401 C-7.41890696 162.07558573 -7.46217501 183.446114 -7.50268555 204.81665039 C-7.5420477 225.5764212 -7.58347566 246.33618619 -7.62768555 267.09594727 C-7.63040982 268.3755293 -7.63313409 269.65511134 -7.63594092 270.97346859 C-7.64962051 277.39274079 -7.66334076 283.81201291 -7.67708123 290.23128498 C-7.79102367 343.4875112 -7.89776486 396.74375011 -8 450 C0.58 449.67 9.16 449.34 18 449 C18 412.37 18 375.74 18 338 C18.33 338 18.66 338 19 338 C19 375.29 19 412.58 19 451 C9.43 451 -0.14 451 -10 451 C-10.04561445 396.24634744 -10.08101381 341.4926973 -10.10213066 286.73902947 C-10.10463211 280.27645907 -10.10722075 273.8138887 -10.10986328 267.35131836 C-10.1103879 266.06472419 -10.11091252 264.77813001 -10.11145304 263.45254814 C-10.12015824 242.61377434 -10.13592885 221.77501157 -10.15430559 200.93624432 C-10.17300143 179.55749694 -10.18411606 158.17875535 -10.18817699 136.80000013 C-10.1909227 123.6056909 -10.19959829 110.41141283 -10.21583293 97.21711319 C-10.2263959 88.17218278 -10.22960218 79.12726851 -10.22700275 70.08233238 C-10.2257204 64.86208415 -10.2277014 59.64189041 -10.23841095 54.42165184 C-10.24814604 49.64150955 -10.24863317 44.86145837 -10.24179779 40.08131187 C-10.24095301 38.35303214 -10.24348785 36.62474672 -10.24976636 34.89647818 C-10.32037245 14.259084 -10.32037245 14.259084 -5.5625 6.0625 C-5.15128906 5.33160156 -4.74007812 4.60070312 -4.31640625 3.84765625 C-3 2 -3 2 0 0 Z " fill="#EE7F3D" transform="translate(112,27)"/>
<path d="M0 0 C1.125 3.75 1.125 3.75 0 6 C-0.09370041 7.417997 -0.12554545 8.84032128 -0.12584114 10.26141071 C-0.12975276 11.61083271 -0.12975276 11.61083271 -0.13374341 12.98751575 C-0.13039732 14.47945832 -0.13039732 14.47945832 -0.12698364 16.00154114 C-0.12854363 17.05327867 -0.13010362 18.1050162 -0.13171089 19.18862456 C-0.13572058 22.73619663 -0.13253132 26.28372639 -0.12939453 29.83129883 C-0.13074861 32.3653211 -0.13252858 34.89934317 -0.13470459 37.43336487 C-0.13880305 43.61641134 -0.13818649 49.79944198 -0.13529195 55.98248867 C-0.1330366 61.00766667 -0.13272597 66.03284127 -0.13381577 71.05801964 C-0.133969 71.77234824 -0.13412223 72.48667685 -0.13428011 73.22265178 C-0.13459983 74.67368605 -0.13492404 76.12472033 -0.1352527 77.57575461 C-0.13810712 91.19598175 -0.13482138 104.81620217 -0.12945233 118.43642821 C-0.1249872 130.12534679 -0.1257579 141.81425543 -0.13037109 153.50317383 C-0.13572248 167.06891614 -0.1378294 180.63465255 -0.13475883 194.20039576 C-0.13444028 195.6471082 -0.1341259 197.09382063 -0.13381577 198.54053307 C-0.13366149 199.25237998 -0.13350721 199.96422689 -0.13334826 200.69764492 C-0.13248459 205.7157421 -0.13394284 210.73383554 -0.13629532 215.75193214 C-0.13939273 222.50778759 -0.13718753 229.26362136 -0.13140106 236.01947594 C-0.13007645 238.50232792 -0.13046254 240.98518148 -0.13266373 243.46803284 C-0.13538699 246.8512127 -0.13197951 250.23433196 -0.12698364 253.61750793 C-0.12921436 254.60544415 -0.13144509 255.59338036 -0.13374341 256.61125404 C-0.13113566 257.51869194 -0.12852791 258.42612984 -0.12584114 259.36106586 C-0.12567879 260.14182588 -0.12551644 260.92258589 -0.12534916 261.7270053 C-0.02761309 264.47650704 -0.02761309 264.47650704 1 269 C8.59 268.67 16.18 268.34 24 268 C24.17887839 257.25016972 24.34512929 246.50020192 24.5 235.75 C24.51187725 234.92608261 24.5237545 234.10216522 24.53599167 233.25328064 C24.97341609 202.58512908 25.08804855 171.92103758 25.0625 141.25 C25.06164398 140.2149382 25.06078796 139.1798764 25.05990601 138.1134491 C25.04860986 125.40894818 25.02867577 112.70447324 25 100 C24.34 99.67 23.68 99.34 23 99 C26.60361637 96.59758909 28.29408215 96.72871628 32.58276367 96.68115234 C33.57828499 96.66608391 33.57828499 96.66608391 34.59391785 96.65071106 C36.78525942 96.61984687 38.97647865 96.60283532 41.16796875 96.5859375 C42.68826859 96.56722841 44.20855801 96.54765519 45.72883606 96.5272522 C49.72856512 96.47589743 53.72832786 96.43628974 57.72821045 96.39910889 C61.8104284 96.35909012 65.89250586 96.3079881 69.97460938 96.2578125 C77.98297698 96.16101365 85.99141405 96.07662166 94 96 C89.34838669 100.65161331 80.04708976 100.11371331 73.77246094 100.22705078 C71.5930733 100.22674025 69.41366624 100.21581223 67.234375 100.1953125 C66.07496399 100.1924826 64.91555298 100.18965271 63.7210083 100.18673706 C60.06389484 100.17565527 56.40703785 100.15057369 52.75 100.125 C50.25130565 100.11495467 47.75260742 100.10583156 45.25390625 100.09765625 C39.1691852 100.07575542 33.08461093 100.04239979 27 100 C27.00092179 100.87005897 27.00184359 101.74011793 27.00279331 102.63654232 C27.02484645 123.77528558 27.04141053 144.91402687 27.05181217 166.0527792 C27.0569756 176.27518056 27.0640192 186.49757426 27.07543945 196.7199707 C27.08538485 205.62642788 27.09185308 214.53287951 27.09408849 223.43934208 C27.09539585 228.15828803 27.09848324 232.8772181 27.10573006 237.59615898 C27.11248801 242.03246139 27.11461742 246.4687413 27.11310768 250.90504837 C27.11338411 252.53815012 27.11539057 254.17125258 27.11920547 255.8043499 C27.12413922 258.0242121 27.12299949 260.24398796 27.12025452 262.46385193 C27.12117631 263.70919425 27.1220981 264.95453657 27.12304783 266.23761654 C27 269 27 269 26 270 C23.85441173 270.08775605 21.70595579 270.10695219 19.55859375 270.09765625 C18.25341797 270.09443359 16.94824219 270.09121094 15.60351562 270.08789062 C14.2148431 270.07953401 12.82617123 270.07106905 11.4375 270.0625 C10.04492344 270.05748666 8.65234519 270.05292347 7.25976562 270.04882812 C3.8398013 270.03699434 0.41992156 270.0205088 -3 270 C-3.04577937 236.86930032 -3.08102019 203.73860885 -3.10213066 170.60788476 C-3.10463207 166.69635346 -3.10722071 162.78482222 -3.10986328 158.87329102 C-3.11065021 157.70521959 -3.11065021 157.70521959 -3.11145304 156.51355077 C-3.12015526 143.90531018 -3.13592423 131.29708784 -3.15430559 118.68885808 C-3.17300973 105.75131345 -3.18411781 92.81377836 -3.18817699 79.87622076 C-3.19092098 71.8932931 -3.19958722 63.910417 -3.21583293 55.9275052 C-3.22765618 49.80583716 -3.22891004 43.68420842 -3.22621536 37.56253052 C-3.22676612 35.05149073 -3.23075148 32.54044902 -3.23841095 30.02942085 C-3.24835107 26.60299217 -3.24597211 23.17678468 -3.24050903 19.75035095 C-3.24633472 18.75520334 -3.2521604 17.76005572 -3.25816262 16.73475212 C-3.23199241 10.66814651 -2.75425201 5.50850402 0 0 Z " fill="#F28343" transform="translate(189,208)"/>
<path d="M0 0 C1.22763565 0.00212242 1.22763565 0.00212242 2.48007202 0.00428772 C5.09873075 0.00989335 7.71730454 0.02244677 10.3359375 0.03515625 C12.10937377 0.04017053 13.88281137 0.04473356 15.65625 0.04882812 C20.00784532 0.05986461 24.359377 0.077133 28.7109375 0.09765625 C28.77957997 55.25050714 28.83245427 110.40335372 28.86413349 165.55623892 C28.86788568 172.06516195 28.87176864 178.5740849 28.87573242 185.08300781 C28.87651935 186.37883614 28.87730628 187.67466447 28.87811706 189.00976032 C28.89117671 210.00118027 28.91483364 230.99257561 28.94239589 251.98398095 C28.97043452 273.51753435 28.9871105 295.05107485 28.99320298 316.58464575 C28.99732262 329.87570943 29.01034175 343.16670357 29.0346869 356.45774585 C29.05052504 365.56761653 29.05534221 374.67745117 29.05144163 383.78733462 C29.0495171 389.04596537 29.05250077 394.30447444 29.06855392 399.56308365 C29.08314281 404.37713382 29.08389636 409.19098037 29.07363418 414.00503987 C29.07236566 415.74676293 29.07617973 417.48849865 29.08558705 419.23019677 C29.09763684 421.59882438 29.09113114 423.96671821 29.08008099 426.33533478 C29.08122015 427.650686 29.08235931 428.96603723 29.08353299 430.32124758 C28.64626623 434.75312619 27.43044898 438.00549254 25.7109375 442.09765625 C24.61304068 438.80396578 24.96411967 436.62835584 25.44399314 433.24635816 C25.85145743 429.96657621 25.84285088 426.71602797 25.8496027 423.41342163 C25.85244492 422.67987857 25.85528714 421.9463355 25.85821548 421.19056386 C25.86650821 418.74340469 25.8678264 416.2962932 25.86915588 413.84912109 C25.87372493 412.07267617 25.87872546 410.29623231 25.88411945 408.5197897 C25.8976709 403.64659167 25.90511024 398.7734006 25.91154611 393.90018868 C25.91956322 388.64192152 25.93325648 383.38366876 25.94625854 378.12541199 C25.9680027 369.01786756 25.98615472 359.91032166 26.00186348 350.80276489 C26.02458088 337.63478347 26.05272112 324.46681803 26.08218276 311.29885018 C26.12983573 289.93442931 26.17310614 268.57000191 26.21362305 247.20556641 C26.25298965 226.45263154 26.29441867 205.69970249 26.33862305 184.94677734 C26.34134732 183.66745803 26.34407159 182.38813871 26.34687842 181.07005215 C26.36055809 174.65205058 26.37427832 168.2340491 26.38801873 161.81604767 C26.50194746 108.57659584 26.60849461 55.33713131 26.7109375 2.09765625 C14.8309375 2.42765625 2.9509375 2.75765625 -9.2890625 3.09765625 C-9.2890625 4.41765625 -9.2890625 5.73765625 -9.2890625 7.09765625 C-10.2790625 7.09765625 -11.2690625 7.09765625 -12.2890625 7.09765625 C-12.2890625 6.43765625 -12.2890625 5.77765625 -12.2890625 5.09765625 C-15.56679754 5.84915648 -15.56679754 5.84915648 -17.2890625 9.09765625 C-19.9140625 9.78515625 -19.9140625 9.78515625 -22.2890625 10.09765625 C-15.82654311 3.0476351 -9.59174684 -0.06195906 0 0 Z " fill="#EF8C4D" transform="translate(439.2890625,20.90234375)"/>
<path d="M0 0 C0.33 1.32 0.66 2.64 1 4 C0.34 4 -0.32 4 -1 4 C-0.690625 5.918125 -0.690625 5.918125 -0.375 7.875 C-0.0234375 10.0546875 -0.0234375 10.0546875 0 12 C-0.66 12.66 -1.32 13.32 -2 14 C-2.30964125 17.1667078 -2.30964125 17.1667078 -2.26171303 20.97718239 C-2.26570909 21.70717914 -2.26970515 22.43717588 -2.27382231 23.18929374 C-2.28488076 25.6605747 -2.28158356 28.13163488 -2.2784729 30.60293579 C-2.283471 32.38245346 -2.28934535 34.16196885 -2.29602563 35.94148099 C-2.31189849 40.85105211 -2.3152603 45.76056613 -2.31667423 50.67015982 C-2.32035563 55.95717102 -2.33550471 61.24415042 -2.34928894 66.53114319 C-2.37160538 75.69772639 -2.38659224 84.86429834 -2.39665604 94.03090286 C-2.41121725 107.28440929 -2.43674679 120.53787656 -2.46498732 133.79136007 C-2.51050195 155.29221147 -2.5470974 176.79306849 -2.578125 198.29394531 C-2.60829145 219.18490589 -2.64263292 240.07585268 -2.68261719 260.96679688 C-2.68507874 262.25366652 -2.68754028 263.54053617 -2.69007643 264.86640187 C-2.70245066 271.32199544 -2.71490726 277.77758885 -2.72740483 284.23318219 C-2.83104253 337.82210234 -2.92007475 391.41103964 -3 445 C7.56 445 18.12 445 29 445 C29 445.33 29 445.66 29 446 C17.78 446 6.56 446 -5 446 C-5.04520261 391.11895255 -5.08101376 336.23790957 -5.10213066 281.3568472 C-5.10463211 274.87925552 -5.10722075 268.40166389 -5.10986328 261.92407227 C-5.1103879 260.63448748 -5.11091252 259.34490269 -5.11145304 258.01623958 C-5.12015826 237.12896685 -5.13592889 216.24170511 -5.15430559 195.35443891 C-5.17300136 173.92597099 -5.18411604 152.49750883 -5.18817699 131.06903309 C-5.19092271 117.84401442 -5.19959838 104.61902684 -5.21583293 91.39401775 C-5.22639582 82.32806257 -5.2296022 73.26212348 -5.22700275 64.19616259 C-5.22572039 58.96376281 -5.22770155 53.73141739 -5.23841095 48.49902725 C-5.24814586 43.70778249 -5.24863329 38.91662863 -5.24179779 34.12537967 C-5.240953 32.39306229 -5.24348799 30.66073922 -5.24976636 28.92843301 C-5.32290493 7.50045695 -5.32290493 7.50045695 0 0 Z " fill="#EF925A" transform="translate(416,32)"/>
<path d="M0 0 C0.33 0 0.66 0 1 0 C0.83785997 0.99711787 0.67571994 1.99423575 0.50866657 3.02156931 C-0.04376597 6.91104383 -0.13074141 10.72355942 -0.1386652 14.65489101 C-0.14150742 15.39741048 -0.14434964 16.13992994 -0.14727798 16.90494999 C-0.15558832 19.38866596 -0.1568903 21.87233506 -0.15821838 24.35606384 C-0.16278623 26.1563945 -0.16778658 27.95672411 -0.17318195 29.75705248 C-0.18674711 34.70091933 -0.19417672 39.64477931 -0.20060861 44.58865988 C-0.20861967 49.92124652 -0.22231503 55.2538189 -0.23532104 60.58639526 C-0.25707376 69.82437124 -0.27522266 79.06234867 -0.29092598 88.30033684 C-0.31363556 101.65692868 -0.3417769 115.01350472 -0.37124526 128.37008316 C-0.4189078 150.04009078 -0.46217562 171.71010487 -0.50268555 193.38012695 C-0.54204727 214.43091332 -0.58347513 235.48169394 -0.62768555 256.5324707 C-0.63040982 257.82997472 -0.63313409 259.12747873 -0.63594092 260.46430104 C-0.64962051 266.97347767 -0.66334076 273.48265421 -0.67708123 279.99183071 C-0.791025 333.99454183 -0.89783901 387.99726539 -1 442 C0.20284637 441.99619324 0.20284637 441.99619324 1.42999268 441.99230957 C2.4936908 441.99033569 3.55738892 441.98836182 4.65332031 441.98632812 C5.7027179 441.98379028 6.75211548 441.98125244 7.83331299 441.9786377 C12.48094179 442.00999036 17.1103917 442.24068655 21.75 442.5 C22.64976563 442.54769531 23.54953125 442.59539062 24.4765625 442.64453125 C26.65119338 442.76020311 28.82562142 442.87967866 31 443 C31 443.33 31 443.66 31 444 C19.78 444 8.56 444 -3 444 C-3.06781049 388.88119047 -3.12152419 333.76239095 -3.15319599 278.64354799 C-3.15694814 272.1372025 -3.1608311 265.63085709 -3.16479492 259.12451172 C-3.16558185 257.82920801 -3.16636878 256.53390431 -3.16717956 255.19934897 C-3.18023574 234.22221319 -3.20389076 213.24510205 -3.23145839 192.26798089 C-3.25950667 170.74571796 -3.27617504 149.22346795 -3.28226548 127.70118749 C-3.28638311 114.4193424 -3.2993914 101.13756698 -3.3237494 87.85574333 C-3.33959944 78.74959593 -3.344402 69.64348458 -3.34050413 60.53732438 C-3.33858146 55.2824963 -3.34154216 50.02779002 -3.35761642 44.77298355 C-3.37223142 39.96006239 -3.37294189 35.14734477 -3.36269668 30.33441417 C-3.36143071 28.59534729 -3.36522264 26.85626763 -3.37464955 25.11722584 C-3.41928821 16.37236308 -3.384712 8.23594662 0 0 Z " fill="#F1803A" transform="translate(21,34)"/>
<path d="M0 0 C-0.33 0.99 -0.66 1.98 -1 3 C-3.06640625 3.94921875 -3.06640625 3.94921875 -5.5625 4.6875 C-6.38878906 4.93886719 -7.21507812 5.19023437 -8.06640625 5.44921875 C-8.70449219 5.63097656 -9.34257812 5.81273437 -10 6 C-10 6.66 -10 7.32 -10 8 C-10.66 8 -11.32 8 -12 8 C-12.33 9.65 -12.66 11.3 -13 13 C-13.66 13 -14.32 13 -15 13 C-15 15.31 -15 17.62 -15 20 C-15.66 20.33 -16.32 20.66 -17 21 C-17.33 126.6 -17.66 232.2 -18 341 C-7.44 341 3.12 341 14 341 C14 341.33 14 341.66 14 342 C2.78 342 -8.44 342 -20 342 C-20.06781609 301.24268137 -20.12152721 260.48537757 -20.15319599 219.72801387 C-20.15694812 214.91649483 -20.16083108 210.1049759 -20.16479492 205.29345703 C-20.16558185 204.33556817 -20.16636878 203.37767931 -20.16717956 202.39076352 C-20.18023432 186.8797201 -20.20388857 171.36871003 -20.23145839 155.8576864 C-20.25951061 139.9425552 -20.27617587 124.02744147 -20.28226548 108.11228657 C-20.2863823 98.29138169 -20.29938613 88.47057108 -20.3237494 78.64969522 C-20.33960431 71.91562234 -20.34440091 65.18159822 -20.34050413 58.44750804 C-20.33858221 54.56199103 -20.34153346 50.67663878 -20.35761642 46.79115105 C-20.37493307 42.57680547 -20.36896189 38.36281057 -20.36076355 34.1484375 C-20.36950207 32.92274583 -20.3782406 31.69705416 -20.38724393 30.43422031 C-20.34383713 22.19273662 -18.9461762 16.28524837 -15 9 C-14.34 9 -13.68 9 -13 9 C-13 8.34 -13 7.68 -13 7 C-12.34 7 -11.68 7 -11 7 C-11 6.34 -11 5.68 -11 5 C-9.54462432 4.16151196 -8.08559627 3.32936066 -6.625 2.5 C-5.40683594 1.80390625 -5.40683594 1.80390625 -4.1640625 1.09375 C-2 0 -2 0 0 0 Z " fill="#F09056" transform="translate(347,136)"/>
<path d="M0 0 C1.22763565 0.00212242 1.22763565 0.00212242 2.48007202 0.00428772 C5.09873075 0.00989335 7.71730454 0.02244677 10.3359375 0.03515625 C12.10937377 0.04017053 13.88281137 0.04473356 15.65625 0.04882812 C20.00784532 0.05986461 24.359377 0.077133 28.7109375 0.09765625 C28.77960077 40.72757791 28.83246484 81.35749202 28.86413349 121.98746011 C28.86788562 126.78395787 28.87176858 131.58045553 28.87573242 136.37695312 C28.87651935 137.33185137 28.87730628 138.28674961 28.87811706 139.27058417 C28.89117177 154.73312869 28.91482598 170.19563976 28.94239589 185.65816444 C28.97044827 201.52357509 28.98711341 217.38896821 28.99320298 233.25440264 C28.99731977 243.04459818 29.01032341 252.83469916 29.0346869 262.62486559 C29.05054201 269.33791371 29.05533836 276.05091293 29.05144163 282.76397842 C29.04951974 286.63734403 29.0524706 290.51054437 29.06855392 294.38388062 C29.08587113 298.58508934 29.07989925 302.78594631 29.07170105 306.98718262 C29.08043957 308.20898334 29.0891781 309.43078406 29.09818143 310.68960905 C29.02488279 324.56379537 29.02488279 324.56379537 24.10687798 329.80816221 C23.64621762 330.23369524 23.18555726 330.65922828 22.7109375 331.09765625 C22.7109375 329.77765625 22.7109375 328.45765625 22.7109375 327.09765625 C23.3709375 327.09765625 24.0309375 327.09765625 24.7109375 327.09765625 C25.50572045 324.27449262 25.85436267 321.72004032 25.91471004 318.79078388 C25.93433878 317.93324202 25.95396752 317.07570015 25.97419107 316.19217217 C25.99059849 315.25632692 26.00700591 314.32048167 26.02391052 313.35627747 C26.04447152 312.36092196 26.06503251 311.36556646 26.08621657 310.34004867 C26.15249114 307.00518365 26.21057673 303.67024501 26.26733398 300.33520508 C26.29884877 298.5854725 26.29884877 298.5854725 26.33100021 296.80039179 C26.82794037 268.78148535 26.84342876 240.76279705 26.81447623 212.74053414 C26.80711098 205.41318031 26.80580692 198.08582823 26.80467957 190.75847123 C26.80252226 177.70478154 26.79595532 164.65109831 26.78637695 151.59741211 C26.77711477 138.9610192 26.77007779 126.32462807 26.76586914 113.68823242 C26.76560642 112.90164195 26.76534369 112.11505148 26.76507301 111.30462494 C26.76376742 107.35623748 26.76250384 103.40785 26.76126111 99.45946252 C26.75099258 67.00552242 26.73346847 34.55159025 26.7109375 2.09765625 C21.63875616 2.21589689 16.5667711 2.34014478 11.49487305 2.4699707 C9.76932785 2.51329187 8.04374057 2.55496898 6.31811523 2.5949707 C3.83824986 2.65274151 1.35859578 2.71641628 -1.12109375 2.78125 C-1.89306595 2.79796249 -2.66503815 2.81467499 -3.46040344 2.83189392 C-6.64089183 2.9199352 -9.25141834 3.0851082 -12.2890625 4.09765625 C-12.6190625 4.75765625 -12.9490625 5.41765625 -13.2890625 6.09765625 C-14.6090625 5.76765625 -15.9290625 5.43765625 -17.2890625 5.09765625 C-10.98649107 1.47951339 -7.37047197 -0.04761047 0 0 Z " fill="#E37B3F" transform="translate(130.2890625,20.90234375)"/>
<path d="M0 0 C-12.68109506 5.60897329 -29.74734063 3.11417494 -43.3125 3.0625 C-45.61393132 3.05747539 -47.9153637 3.05291419 -50.21679688 3.04882812 C-55.81122136 3.03789765 -61.40560563 3.02123558 -67 3 C-66.99907821 3.87005897 -66.99815641 4.74011793 -66.99720669 5.63654232 C-66.97515355 26.77528558 -66.95858947 47.91402687 -66.94818783 69.0527792 C-66.9430244 79.27518056 -66.9359808 89.49757426 -66.92456055 99.7199707 C-66.91461515 108.62642788 -66.90814692 117.53287951 -66.90591151 126.43934208 C-66.90460415 131.15828803 -66.90151676 135.8772181 -66.89426994 140.59615898 C-66.88751199 145.03246139 -66.88538258 149.4687413 -66.88689232 153.90504837 C-66.88661589 155.53815012 -66.88460943 157.17125258 -66.88079453 158.8043499 C-66.87586078 161.0242121 -66.87700051 163.24398796 -66.87974548 165.46385193 C-66.87882369 166.70919425 -66.8779019 167.95453657 -66.87695217 169.23761654 C-67 172 -67 172 -68 173 C-70.14558827 173.08775605 -72.29404421 173.10695219 -74.44140625 173.09765625 C-75.74658203 173.09443359 -77.05175781 173.09121094 -78.39648438 173.08789062 C-79.7851569 173.07953401 -81.17382877 173.07106905 -82.5625 173.0625 C-83.95507656 173.05748666 -85.34765481 173.05292347 -86.74023438 173.04882812 C-90.1601987 173.03699434 -93.58007844 173.0205088 -97 173 C-97 172.67 -97 172.34 -97 172 C-88.09 171.67 -79.18 171.34 -70 171 C-69.82438875 160.25008248 -69.65487094 149.50021811 -69.5 138.75 C-69.48812275 137.92608261 -69.4762455 137.10216522 -69.46400833 136.25328064 C-69.02658391 105.58512908 -68.91195145 74.92103758 -68.9375 44.25 C-68.93835602 43.2149382 -68.93921204 42.1798764 -68.94009399 41.1134491 C-68.95139014 28.40894818 -68.97132423 15.70447324 -69 3 C-69.66 2.67 -70.32 2.34 -71 2 C-67.49398045 -0.33734637 -66.00039236 -0.27403929 -61.84790039 -0.3347168 C-59.94561424 -0.36936287 -59.94561424 -0.36936287 -58.00489807 -0.40470886 C-56.61915474 -0.4199091 -55.23340727 -0.43473666 -53.84765625 -0.44921875 C-52.42662001 -0.47047623 -51.00559423 -0.49244365 -49.58457947 -0.51509094 C-46.60631985 -0.56048669 -43.62807178 -0.59927703 -40.6496582 -0.63305664 C-36.83516812 -0.67656136 -33.02102152 -0.73330011 -29.20678043 -0.7946043 C-26.2720209 -0.84083916 -23.33720615 -0.88160783 -20.40234184 -0.92057228 C-18.99613033 -0.93959895 -17.58993612 -0.95995308 -16.1837635 -0.98166466 C-14.21641211 -1.01090652 -12.24894959 -1.03235694 -10.28149414 -1.0534668 C-9.16247208 -1.06741989 -8.04345001 -1.08137299 -6.89051819 -1.0957489 C-4.39678401 -1.01314354 -2.37083051 -0.73254191 0 0 Z " fill="#EE9056" transform="translate(283,305)"/>
<path d="M0 0 C1.22763565 0.00212242 1.22763565 0.00212242 2.48007202 0.00428772 C5.09873075 0.00989335 7.71730454 0.02244677 10.3359375 0.03515625 C12.10937377 0.04017053 13.88281137 0.04473356 15.65625 0.04882812 C20.00784532 0.05986461 24.359377 0.077133 28.7109375 0.09765625 C28.73591479 4.06289695 28.7539269 8.0281063 28.76586914 11.9934082 C28.77328854 13.99497083 28.78600409 15.99651158 28.79882812 17.99804688 C28.81593359 24.7889155 28.64891754 31.36931126 27.7109375 38.09765625 C27.3809375 38.09765625 27.0509375 38.09765625 26.7109375 38.09765625 C26.7109375 26.21765625 26.7109375 14.33765625 26.7109375 2.09765625 C20.8328125 2.24203125 14.9546875 2.38640625 8.8984375 2.53515625 C6.12022583 2.59981079 6.12022583 2.59981079 3.28588867 2.66577148 C1.81688502 2.70389974 0.34789018 2.74236933 -1.12109375 2.78125 C-2.26402893 2.80596375 -2.26402893 2.80596375 -3.43005371 2.83117676 C-6.62067177 2.91932121 -9.24167127 3.08185917 -12.2890625 4.09765625 C-12.6190625 4.75765625 -12.9490625 5.41765625 -13.2890625 6.09765625 C-14.6090625 5.76765625 -15.9290625 5.43765625 -17.2890625 5.09765625 C-10.98649107 1.47951339 -7.37047197 -0.04761047 0 0 Z " fill="#E17130" transform="translate(130.2890625,20.90234375)"/>
<path d="M0 0 C-11.45383286 5.10745724 -26.50058114 3.12060094 -38.8125 3.0625 C-40.68033733 3.05747239 -42.54817599 3.05291173 -44.41601562 3.04882812 C-48.94404359 3.03792834 -53.47200683 3.02073403 -58 3 C-58 2.34 -58 1.68 -58 1 C-58.66 0.67 -59.32 0.34 -60 0 C-52.09812404 -0.16824601 -44.1961108 -0.32813283 -36.29394531 -0.48217773 C-33.60508446 -0.53498014 -30.9162983 -0.59045324 -28.22753906 -0.64819336 C-24.36531654 -0.73014089 -20.50301254 -0.80520268 -16.640625 -0.87890625 C-15.4363385 -0.90594131 -14.232052 -0.93297638 -12.99127197 -0.96083069 C-11.87041199 -0.98092697 -10.749552 -1.00102325 -9.59472656 -1.02172852 C-8.60877502 -1.04171402 -7.62282349 -1.06169952 -6.60699463 -1.08229065 C-4.22900349 -1.00722857 -2.26830702 -0.68536193 0 0 Z " fill="#E58244" transform="translate(283,305)"/>
<path d="M0 0 C1.22763565 0.00212242 1.22763565 0.00212242 2.48007202 0.00428772 C5.09873075 0.00989335 7.71730454 0.02244677 10.3359375 0.03515625 C12.10937377 0.04017053 13.88281137 0.04473356 15.65625 0.04882812 C20.00784532 0.05986461 24.359377 0.077133 28.7109375 0.09765625 C28.3809375 1.08765625 28.0509375 2.07765625 27.7109375 3.09765625 C27.7109375 2.43765625 27.7109375 1.77765625 27.7109375 1.09765625 C23.08430423 1.21610233 18.45787708 1.34036397 13.83154297 1.4699707 C12.25834376 1.51322963 10.68510033 1.55491099 9.11181641 1.5949707 C6.84784635 1.65289287 4.58409699 1.71652339 2.3203125 1.78125 C1.61912292 1.79796249 0.91793335 1.81467499 0.19549561 1.83189392 C-3.09140071 1.93116647 -6.14048255 2.10578297 -9.2890625 3.09765625 C-9.2890625 4.41765625 -9.2890625 5.73765625 -9.2890625 7.09765625 C-10.2790625 7.09765625 -11.2690625 7.09765625 -12.2890625 7.09765625 C-12.2890625 6.43765625 -12.2890625 5.77765625 -12.2890625 5.09765625 C-15.56679754 5.84915648 -15.56679754 5.84915648 -17.2890625 9.09765625 C-19.9140625 9.78515625 -19.9140625 9.78515625 -22.2890625 10.09765625 C-15.82654311 3.0476351 -9.59174684 -0.06195906 0 0 Z " fill="#D67642" transform="translate(439.2890625,20.90234375)"/>
<path d="M0 0 C-0.33 0.99 -0.66 1.98 -1 3 C-1.99 2.67 -2.98 2.34 -4 2 C-4.33 2.33 -4.66 2.66 -5 3 C-6 4 -7 5 -8 6 C-8.66 5.67 -9.32 5.34 -10 5 C-10.33 5.66 -10.66 6.32 -11 7 C-12.32 6.67 -13.64 6.34 -15 6 C-15.33 7.32 -15.66 8.64 -16 10 C-16.99 10 -17.98 10 -19 10 C-19.33 11.65 -19.66 13.3 -20 15 C-20.66 15 -21.32 15 -22 15 C-20.76023865 9.66902619 -18.47591913 6.94779696 -14 4 C-9.29170918 1.12062693 -5.6624046 -0.56624046 0 0 Z " fill="#EE722D" transform="translate(212,193)"/>
<path d="M0 0 C-0.33 0.99 -0.66 1.98 -1 3 C-3.06640625 3.94921875 -3.06640625 3.94921875 -5.5625 4.6875 C-6.38878906 4.93886719 -7.21507812 5.19023437 -8.06640625 5.44921875 C-8.70449219 5.63097656 -9.34257812 5.81273437 -10 6 C-10 6.66 -10 7.32 -10 8 C-10.66 8 -11.32 8 -12 8 C-12.33 9.65 -12.66 11.3 -13 13 C-13.66 13 -14.32 13 -15 13 C-15 13.66 -15 14.32 -15 15 C-15.99 15.33 -16.98 15.66 -18 16 C-16.125 11.25 -16.125 11.25 -15 9 C-14.34 9 -13.68 9 -13 9 C-13 8.34 -13 7.68 -13 7 C-12.34 7 -11.68 7 -11 7 C-11 6.34 -11 5.68 -11 5 C-9.54462432 4.16151196 -8.08559627 3.32936066 -6.625 2.5 C-5.40683594 1.80390625 -5.40683594 1.80390625 -4.1640625 1.09375 C-2 0 -2 0 0 0 Z " fill="#E97A3B" transform="translate(347,136)"/>
<path d="M0 0 C0.33 0.99 0.66 1.98 1 3 C0.01 3.33 -0.98 3.66 -2 4 C-2.87796879 6.0032149 -2.87796879 6.0032149 -3.4375 8.375 C-4.37483116 11.51107074 -4.75826144 12.77207508 -7.1875 15.0625 C-7.785625 15.371875 -8.38375 15.68125 -9 16 C-8.41774247 12.34471662 -7.43242431 9.53847854 -5.625 6.3125 C-5.20476562 5.54550781 -4.78453125 4.77851563 -4.3515625 3.98828125 C-3 2 -3 2 0 0 Z " fill="#EA7831" transform="translate(112,27)"/>
<path d="M0 0 C-1.98 0.99 -1.98 0.99 -4 2 C-4 3.32 -4 4.64 -4 6 C-4.99 6 -5.98 6 -7 6 C-7 5.34 -7 4.68 -7 4 C-10.27773504 4.75150023 -10.27773504 4.75150023 -12 8 C-14.625 8.6875 -14.625 8.6875 -17 9 C-12.41417273 3.99727934 -7.29336123 -0.88404379 0 0 Z " fill="#EB7432" transform="translate(434,22)"/>
<path d="M0 0 C0.33 1.32 0.66 2.64 1 4 C0.34 4 -0.32 4 -1 4 C-0.67 6.64 -0.34 9.28 0 12 C-1.98 12.99 -1.98 12.99 -4 14 C-3.66009167 8.62007164 -3.31442207 4.46726453 0 0 Z " fill="#ED742B" transform="translate(416,32)"/>
<path d="M0 0 C0.33 1.32 0.66 2.64 1 4 C-0.1446875 4.12375 -0.1446875 4.12375 -1.3125 4.25 C-4.52373261 5.14615794 -5.29374499 6.21611025 -7 9 C-7.99 8.67 -8.98 8.34 -10 8 C-3.94594595 0 -3.94594595 0 0 0 Z " fill="#EE7634" transform="translate(32,25)"/>
<path d="M0 0 C0.99 0.33 1.98 0.66 3 1 C2.67 1.66 2.34 2.32 2 3 C3.32 3.33 4.64 3.66 6 4 C2.52674819 5.1577506 -0.36067448 5.06866652 -4 5 C-3 2 -3 2 0 0 Z " fill="#F17022" transform="translate(445,472)"/>
<path d="M0 0 C-1.11666174 3.34998521 -1.74694925 3.79340222 -4.5625 5.6875 C-5.20316406 6.12449219 -5.84382813 6.56148438 -6.50390625 7.01171875 C-6.99761719 7.33785156 -7.49132812 7.66398437 -8 8 C-8.66 7.67 -9.32 7.34 -10 7 C-8.68 6.34 -7.36 5.68 -6 5 C-6.33 4.01 -6.66 3.02 -7 2 C-2.25 0 -2.25 0 0 0 Z " fill="#E97430" transform="translate(461,467)"/>
<path d="M0 0 C0.99 0.99 1.98 1.98 3 3 C1.73581754 3.69965443 0.46334598 4.38434763 -0.8125 5.0625 C-1.52019531 5.44535156 -2.22789062 5.82820313 -2.95703125 6.22265625 C-5 7 -5 7 -8 6 C-5 4 -5 4 -2 4 C-1.34 2.68 -0.68 1.36 0 0 Z " fill="#EE8240" transform="translate(369,470)"/>
<path d="M0 0 C1 3 1 3 -0.3125 6.625 C-2 10 -2 10 -4 11 C-4 9.68 -4 8.36 -4 7 C-3.34 7 -2.68 7 -2 7 C-2 5.02 -2 3.04 -2 1 C-1.34 0.67 -0.68 0.34 0 0 Z " fill="#E97C39" transform="translate(381,456)"/>
<path d="M0 0 C1.65 0.33 3.3 0.66 5 1 C4.01 1.495 4.01 1.495 3 2 C3 2.66 3 3.32 3 4 C1.02 4.66 -0.96 5.32 -3 6 C-2.01 4.02 -1.02 2.04 0 0 Z " fill="#ED7733" transform="translate(286,298)"/>
<path d="M0 0 C0.99 0 1.98 0 3 0 C1.125 4.75 1.125 4.75 0 7 C-0.66 7 -1.32 7 -2 7 C-2 5.35 -2 3.7 -2 2 C-1.34 2 -0.68 2 0 2 C0 1.34 0 0.68 0 0 Z " fill="#EE7C36" transform="translate(293,291)"/>
<path d="M0 0 C-1.26691507 0.67408308 -2.53870749 1.33900497 -3.8125 2 C-4.52019531 2.37125 -5.22789063 2.7425 -5.95703125 3.125 C-8 4 -8 4 -11 4 C-11 3.34 -11 2.68 -11 2 C-9.54494642 1.47007308 -8.08581873 0.9513211 -6.625 0.4375 C-5.81289063 0.14746094 -5.00078125 -0.14257812 -4.1640625 -0.44140625 C-2 -1 -2 -1 0 0 Z " fill="#E7884C" transform="translate(63,473)"/>
<path d="M0 0 C1.07310858 3.27185553 0.89263102 5.42947592 0.0625 8.75 C-0.22947266 9.94882813 -0.22947266 9.94882813 -0.52734375 11.171875 C-0.68332031 11.77515625 -0.83929688 12.3784375 -1 13 C-2.90335782 9.78764145 -3.05840402 9.2605718 -2.1875 5.375 C-1 2 -1 2 0 0 Z " fill="#E37939" transform="translate(189,208)"/>
</svg>
